<?xml version="1.0" encoding="UTF-8" standalone="no"?>
<!-- Created with Inkscape (http://www.inkscape.org/) -->

<svg
   xmlns:dc="http://purl.org/dc/elements/1.1/"
   xmlns:cc="http://creativecommons.org/ns#"
   xmlns:rdf="http://www.w3.org/1999/02/22-rdf-syntax-ns#"
   xmlns:svg="http://www.w3.org/2000/svg"
   xmlns="http://www.w3.org/2000/svg"
   xmlns:sodipodi="http://sodipodi.sourceforge.net/DTD/sodipodi-0.dtd"
   xmlns:inkscape="http://www.inkscape.org/namespaces/inkscape"
   width="408.65781mm"
   height="36.802197mm"
   viewBox="0 0 1448.0001 130.40149"
   id="svg2"
   version="1.1"
   inkscape:version="0.91 r13725"
   sodipodi:docname="logo.svg">
  <defs
     id="defs4" />
  <sodipodi:namedview
     id="base"
     pagecolor="#ffffff"
     bordercolor="#666666"
     borderopacity="1.0"
     inkscape:pageopacity="0.0"
     inkscape:pageshadow="2"
     inkscape:zoom="0.49497475"
     inkscape:cx="993.40035"
     inkscape:cy="-208.20028"
     inkscape:document-units="px"
     inkscape:current-layer="layer1"
     showgrid="false"
     fit-margin-top="0"
     fit-margin-left="0"
     fit-margin-right="0"
     fit-margin-bottom="0"
     inkscape:window-width="1920"
     inkscape:window-height="1017"
     inkscape:window-x="1912"
     inkscape:window-y="-8"
     inkscape:window-maximized="1" />
  <metadata
     id="metadata7">
    <rdf:RDF>
      <cc:Work
         rdf:about="">
        <dc:format>image/svg+xml</dc:format>
        <dc:type
           rdf:resource="http://purl.org/dc/dcmitype/StillImage" />
        <dc:title></dc:title>
      </cc:Work>
    </rdf:RDF>
  </metadata>
  <g
     inkscape:label="Layer 1"
     inkscape:groupmode="layer"
     id="layer1"
     transform="translate(-66.561827,-308.03554)">
    <path
       style="fill:#ffffff"
       d="m 124.54324,429.14428 0,-5.10715 12.34226,0 12.34226,0 0,-43.83631 0,-43.8363 -12.34226,0 -12.34226,0 0,-12.34227 0,-12.34226 20.00298,0 20.00297,0 0,5.10714 0,5.10715 -12.34226,0 -12.34226,0 0,3.83035 0,3.83036 12.34226,0 12.34226,0 0,52.34822 0,52.34821 -20.00297,0 -20.00298,0 0,-5.10714 z m 47.66667,-56.17857 0,-61.28572 7.66071,0 7.66072,0 0,61.28572 0,61.28571 -7.66072,0 -7.66071,0 0,-61.28571 z m 35.54332,5.31994 -0.21892,-55.96578 -6.17113,-0.25009 -6.17113,-0.25008 0,-5.06986 0,-5.06985 20.00298,0 20.00297,0 0,5.06985 0,5.06986 -6.17113,0.25008 -6.17113,0.25009 -0.21892,55.96578 -0.21892,55.96577 -7.22287,0 -7.22288,0 -0.21892,-55.96577 z m 35.10549,-5.31994 0,-61.28572 20.00297,0 20.00298,0 0,5.10714 0,5.10715 -12.34226,0 -12.34227,0 0,3.83035 0,3.83036 12.34227,0 12.34226,0 0,3.40476 0,3.40477 -12.34226,0 -12.34227,0 0,43.8363 0,43.83631 12.34227,0 12.34226,0 0,5.10715 0,5.10714 -20.00298,0 -20.00297,0 0,-61.28571 z m 47.66666,56.17857 0,-5.10715 12.34226,0 12.34227,0 0,-43.83631 0,-43.8363 -12.34227,0 -12.34226,0 0,-12.34227 0,-12.34226 20.00298,0 20.00298,0 0,5.10714 0,5.10715 -12.34227,0 -12.34226,0 0,3.83035 0,3.83036 12.34226,0 12.34227,0 0,52.34822 0,52.34821 -20.00298,0 -20.00298,0 0,-5.10714 z m 71.5,-56.17857 0,-61.28572 7.6546,0 7.65459,0 0.21892,55.96578 0.21892,55.96577 4.25595,0 4.25595,0 0.21892,-55.96577 0.21892,-55.96578 7.65459,0 7.6546,0 0,61.28572 0,61.28571 -20.00298,0 -20.00298,0 0,-61.28571 z m 47.66667,0 0,-61.28572 20.00298,0 20.00297,0 0,61.28572 0,61.28571 -7.66071,0 -7.66072,0 0,-56.17857 0,-56.17857 -4.68154,0 -4.68155,0 0,56.17857 0,56.17857 -7.66072,0 -7.66071,0 0,-61.28571 z m 47.66667,56.17857 0,-5.10715 12.34226,0 12.34226,0 0,-43.83631 0,-43.8363 -12.34226,0 -12.34226,0 0,-12.34227 0,-12.34226 20.00297,0 20.00298,0 0,5.10714 0,5.10715 -12.34226,0 -12.34227,0 0,3.83035 0,3.83036 12.34227,0 12.34226,0 0,52.34822 0,52.34821 -20.00298,0 -20.00297,0 0,-5.10714 z m 47.66666,-56.17857 0,-61.28572 20.00298,0 20.00298,0 0,5.10714 0,5.10715 -12.34227,0 -12.34226,0 0,3.83035 0,3.83036 12.34226,0 12.34227,0 0,3.40476 0,3.40477 -12.34227,0 -12.34226,0 0,43.8363 0,43.83631 12.34226,0 12.34227,0 0,5.10715 0,5.10714 -20.00298,0 -20.00298,0 0,-61.28571 z m 47.66667,0 0,-61.28572 20.00298,0 20.00297,0 0,5.10714 0,5.10715 -12.34226,0 -12.34226,0 0,3.83035 0,3.83036 12.34226,0 12.34226,0 0,3.40476 0,3.40477 -12.34226,0 -12.34226,0 0,43.8363 0,43.83631 12.34226,0 12.34226,0 0,5.10715 0,5.10714 -20.00297,0 -20.00298,0 0,-61.28571 z m 47.66667,0 0,-61.28572 20.00297,0 20.00298,0 0,61.28572 0,61.28571 -7.66072,0 -7.66071,0 0,-56.17857 0,-56.17857 -4.68155,0 -4.68155,0 0,56.17857 0,56.17857 -7.66071,0 -7.66071,0 0,-61.28571 z"
       id="path4154"
       inkscape:connector-curvature="0" />
    <flowRoot
       xml:space="preserve"
       id="flowRoot4169"
       style="font-style:normal;font-weight:normal;font-size:180px;line-height:125%;font-family:sans-serif;letter-spacing:0px;word-spacing:0px;fill:#000000;fill-opacity:1;stroke:none;stroke-width:1px;stroke-linecap:butt;stroke-linejoin:miter;stroke-opacity:1"
       transform="translate(80.043251,302.33011)"><flowRegion
         id="flowRegion4171"><rect
           id="rect4173"
           width="234.35539"
           height="252.53813"
           x="482.85291"
           y="83.618179" /></flowRegion><flowPara
         id="flowPara4175"></flowPara></flowRoot>  </g>
</svg>
