<?xml version="1.0" encoding="UTF-8" standalone="no"?>
<!-- Created with Inkscape (http://www.inkscape.org/) -->

<svg
   xmlns:dc="http://purl.org/dc/elements/1.1/"
   xmlns:cc="http://creativecommons.org/ns#"
   xmlns:rdf="http://www.w3.org/1999/02/22-rdf-syntax-ns#"
   xmlns:svg="http://www.w3.org/2000/svg"
   xmlns="http://www.w3.org/2000/svg"
   xmlns:sodipodi="http://sodipodi.sourceforge.net/DTD/sodipodi-0.dtd"
   xmlns:inkscape="http://www.inkscape.org/namespaces/inkscape"
   width="408.65781mm"
   height="36.802197mm"
   viewBox="0 0 1448.0001 130.40149"
   id="svg2"
   version="1.1"
   inkscape:version="0.91 r13725"
   sodipodi:docname="logo.svg">
  <defs
     id="defs4" />
  <sodipodi:namedview
     id="base"
     pagecolor="#ffffff"
     bordercolor="#666666"
     borderopacity="1.0"
     inkscape:pageopacity="0.0"
     inkscape:pageshadow="2"
     inkscape:zoom="0.49497475"
     inkscape:cx="993.40035"
     inkscape:cy="-208.20028"
     inkscape:document-units="px"
     inkscape:current-layer="layer1"
     showgrid="false"
     fit-margin-top="0"
     fit-margin-left="0"
     fit-margin-right="0"
     fit-margin-bottom="0"
     inkscape:window-width="1920"
     inkscape:window-height="1017"
     inkscape:window-x="1912"
     inkscape:window-y="-8"
     inkscape:window-maximized="1" />
  <metadata
     id="metadata7">
    <rdf:RDF>
      <cc:Work
         rdf:about="">
        <dc:format>image/svg+xml</dc:format>
        <dc:type
           rdf:resource="http://purl.org/dc/dcmitype/StillImage" />
        <dc:title></dc:title>
      </cc:Work>
    </rdf:RDF>
  </metadata>
  <g
     inkscape:label="Layer 1"
     inkscape:groupmode="layer"
     id="layer1"
     transform="translate(-66.561832,-310.05585)">
    <path
       style="fill:#ffffff"
       d="m 110.06183,439.55521 c -13.135968,-2.1555 -22.412418,-6.39236 -30.820208,-14.07661 -6.34444,-5.79846 -12.67979,-17.10269 -12.67979,-22.62468 l 0,-3.36564 16,0 c 12.6379,0 16,0.27917 16,1.32856 0,0.7307 1.35797,3.37872 3.017718,5.88447 6.09573,9.20288 20.94164,12.04941 32.56355,6.24367 11.28705,-5.63845 13.34689,-13.50897 5.40352,-20.64653 -4.92856,-4.42858 -9.65343,-6.07431 -25.48471,-8.87659 -32.885528,-5.82104 -45.647168,-15.30595 -45.668938,-33.94282 -0.0206,-17.58911 14.30364,-32.68736 36.168858,-38.12338 7.71214,-1.91735 27.81642,-1.66729 35.78967,0.44516 17.56881,4.65472 29.61947,15.33597 31.51925,27.93746 l 0.56534,3.75 -14.83713,0 -14.83713,0 -3.39692,-3.39692 c -4.08821,-4.08821 -8.98143,-5.59006 -18.23736,-5.5975 -11.69834,-0.009 -20.56572,5.98253 -20.56572,13.89683 0,6.74749 4.48506,9.32566 20.34982,11.69779 22.07918,3.30134 33.95641,7.0214 42.17677,13.21018 16.90223,12.72501 17.98391,36.22502 2.35705,51.20791 -5.50498,5.27812 -16.51951,11.27106 -24.88364,13.53904 -6.64382,1.80151 -23.60502,2.64101 -30.5,1.5096 z m 439.99999,0 c -13.13597,-2.1555 -22.41242,-6.39236 -30.82021,-14.07661 -6.34444,-5.79846 -12.67979,-17.10269 -12.67979,-22.62468 l 0,-3.36564 16,0 c 12.6379,0 16,0.27917 16,1.32856 0,0.7307 1.35797,3.37872 3.01772,5.88447 6.09573,9.20288 20.94165,12.04941 32.56356,6.24367 11.28705,-5.63845 13.34689,-13.50897 5.40352,-20.64653 -4.92856,-4.42858 -9.65343,-6.07431 -25.48472,-8.87659 -32.88553,-5.82104 -45.64717,-15.30595 -45.66894,-33.94282 -0.0206,-17.58911 14.30364,-32.68736 36.16886,-38.12338 7.71214,-1.91735 27.81643,-1.66729 35.78968,0.44516 17.56881,4.65472 29.61947,15.33597 31.51925,27.93746 l 0.56534,3.75 -14.83713,0 -14.83713,0 -3.39692,-3.39692 c -4.08821,-4.08821 -8.98143,-5.59006 -18.23736,-5.5975 -11.69835,-0.009 -20.56573,5.98253 -20.56573,13.89683 0,6.74749 4.48506,9.32566 20.34983,11.69779 22.07918,3.30134 33.95641,7.0214 42.17677,13.21018 16.90223,12.72501 17.98391,36.22502 2.35705,51.20791 -5.50498,5.27812 -16.51951,11.27106 -24.88364,13.53904 -6.64382,1.80151 -23.60503,2.64101 -30.50001,1.5096 z m 216.63087,-0.60793 c -21.96978,-4.76707 -39.43606,-21.63151 -46.26106,-44.66703 -2.00036,-6.75154 -2.1942,-10.05266 -2.61553,-44.54197 l -0.45506,-37.25 15.1004,0 15.10039,0 0.008,30.25 c 0.01,39.78181 1.1493,46.38345 9.62421,55.76416 9.26294,10.25297 21.72689,13.68462 34.40669,9.47307 6.50291,-2.15992 15.10773,-10.02324 18.38109,-16.79714 3.83874,-7.94389 4.56471,-15.63405 4.57291,-48.44009 l 0.007,-30.25 15,0 15,0 -0.0309,32.25 c -0.0327,34.14579 -0.63408,42.29966 -3.89063,52.75 -9.48971,30.45272 -41.62885,48.47164 -73.94763,41.459 z m 298.36911,0.60793 c -13.136,-2.1555 -22.4124,-6.39236 -30.8202,-14.07661 -6.3445,-5.79846 -12.6798,-17.10269 -12.6798,-22.62468 l 0,-3.36564 16,0 c 12.6379,0 16,0.27917 16,1.32856 0,0.7307 1.358,3.37872 3.0177,5.88447 6.0958,9.20288 20.9417,12.04941 32.5636,6.24367 11.287,-5.63845 13.3469,-13.50897 5.4035,-20.64653 -4.9286,-4.42858 -9.6534,-6.07431 -25.4847,-8.87659 -32.8855,-5.82104 -45.6472,-15.30595 -45.669,-33.94282 -0.02,-17.58911 14.3037,-32.68736 36.1689,-38.12338 7.7121,-1.91735 27.8164,-1.66729 35.7897,0.44516 17.5688,4.65472 29.6194,15.33597 31.5192,27.93746 l 0.5654,3.75 -14.8372,0 -14.8371,0 -3.3969,-3.39692 c -4.0882,-4.08821 -8.9814,-5.59006 -18.2374,-5.5975 -11.6983,-0.009 -20.5657,5.98253 -20.5657,13.89683 0,6.74749 4.4851,9.32566 20.3498,11.69779 22.0792,3.30134 33.9564,7.0214 42.1768,13.21018 16.9022,12.72501 17.9839,36.22502 2.357,51.20791 -5.5049,5.27812 -16.5195,11.27106 -24.8836,13.53904 -6.6438,1.80151 -23.605,2.64101 -30.5,1.5096 z m -863.49997,-64.56693 0,-62.5 14.5,0 14.5,0 0,62.5 0,62.5 -14.5,0 -14.5,0 0,-62.5 z m 97,13.5 0,-49 -23.5,0 -23.5,0 0,-13.5 0,-13.5 62,0 61.99999,0 0,13.4819 0,13.4819 -23.74999,0.2681 -23.75,0.2681 -0.25951,48.75 -0.25952,48.75 -14.49048,0 -14.49049,0 0,-49 z m 95.99999,-13.5 0,-62.5 47,0 47,0 0,13.5 0,13.5 -32.03275,0 -32.03275,0 0.28275,11.25 0.28275,11.25 24.75,0.26747 24.75,0.26747 0,12.98253 0,12.98253 -25.03275,0 -25.03275,0 0.28275,11.25 0.28275,11.25 31.75,0.26405 31.75,0.26404 0,12.98596 0,12.98595 -47,0 -47,0 0,-62.5 z m 481.00001,0 0,-62.5 14.75,0.0513 14.75,0.0513 30.49998,38.39742 c 16.775,21.11858 30.8375,38.4205 31.25,38.44871 0.4125,0.0282 0.75,-17.27371 0.75,-38.44871 l 0,-38.5 14.5,0 14.5,0 0,62.5 0,62.5 -14.75,-0.0233 -14.75,-0.0233 -30.5,-36.92974 c -16.77498,-20.31135 -30.83748,-36.95085 -31.24998,-36.97669 -0.4125,-0.0258 -0.75,16.60303 -0.75,36.95303 l 0,37 -14.5,0 -14.5,0 0,-62.5 z m 280.99997,0 0,-62.5 47,0 47,0 0,13.5 0,13.5 -32.0328,0 -32.0327,0 0.2827,11.25 0.2828,11.25 24.75,0.26747 24.75,0.26747 0,12.98253 0,12.98253 -25.0328,0 -25.0327,0 0.2827,11.25 0.2828,11.25 31.75,0.26405 31.75,0.26404 0,12.98596 0,12.98595 -47,0 -47,0 0,-62.5 z m 112,0 0,-62.5 47,0 47,0 0,13.5 0,13.5 -32.0328,0 -32.0327,0 0.2827,11.25 0.2828,11.25 24.75,0.26747 24.75,0.26747 0,12.98253 0,12.98253 -25.0328,0 -25.0327,0 0.2827,11.25 0.2828,11.25 31.75,0.26405 31.75,0.26404 0,12.98596 0,12.98595 -47,0 -47,0 0,-62.5 z m 125,0 0,-62.5 14.75,0.0513 14.75,0.0513 30.5,38.39742 c 16.7751,21.11858 30.8376,38.4205 31.2501,38.44871 0.4125,0.0282 0.75,-17.27371 0.75,-38.44871 l 0,-38.5 14.5,0 14.5,0 0,62.5 0,62.5 -14.75,-0.0233 -14.75,-0.0233 -30.5001,-36.92971 c -16.775,-20.31138 -30.8375,-36.95088 -31.25,-36.97672 -0.4125,-0.0258 -0.75,16.60303 -0.75,36.95303 l 0,37 -14.5,0 -14.5,0 0,-62.5 z"
       id="path4167"
       inkscape:connector-curvature="0" />
    <flowRoot
       xml:space="preserve"
       id="flowRoot4169"
       style="font-style:normal;font-weight:normal;font-size:180px;line-height:125%;font-family:sans-serif;letter-spacing:0px;word-spacing:0px;fill:#000000;fill-opacity:1;stroke:none;stroke-width:1px;stroke-linecap:butt;stroke-linejoin:miter;stroke-opacity:1"
       transform="translate(80.043251,302.33011)"><flowRegion
         id="flowRegion4171"><rect
           id="rect4173"
           width="234.35539"
           height="252.53813"
           x="482.85291"
           y="83.618179" /></flowRegion><flowPara
         id="flowPara4175"></flowPara></flowRoot>  </g>
</svg>
