<?xml version="1.0" encoding="UTF-8" standalone="no"?>
<svg
   xmlns:dc="http://purl.org/dc/elements/1.1/"
   xmlns:cc="http://creativecommons.org/ns#"
   xmlns:rdf="http://www.w3.org/1999/02/22-rdf-syntax-ns#"
   xmlns:svg="http://www.w3.org/2000/svg"
   xmlns="http://www.w3.org/2000/svg"
   xmlns:sodipodi="http://sodipodi.sourceforge.net/DTD/sodipodi-0.dtd"
   xmlns:inkscape="http://www.inkscape.org/namespaces/inkscape"
   width="373.42786mm"
   height="32.402157mm"
   viewBox="0 0 373.42786 32.402157"
   version="1.1"
   id="svg8"
   inkscape:version="1.0.2 (e86c870879, 2021-01-15, custom)"
   sodipodi:docname="logo.svg">
  <defs
     id="defs2" />
  <sodipodi:namedview
     id="base"
     pagecolor="#ffffff"
     bordercolor="#666666"
     borderopacity="1.0"
     inkscape:pageopacity="0.0"
     inkscape:pageshadow="2"
     inkscape:zoom="0.35"
     inkscape:cx="751.49052"
     inkscape:cy="179.10769"
     inkscape:document-units="mm"
     inkscape:current-layer="layer1"
     inkscape:document-rotation="0"
     showgrid="false"
     fit-margin-top="0"
     fit-margin-left="0"
     fit-margin-right="0"
     fit-margin-bottom="0"
     inkscape:window-width="1920"
     inkscape:window-height="1017"
     inkscape:window-x="1912"
     inkscape:window-y="-8"
     inkscape:window-maximized="1" />
  <metadata
     id="metadata5">
    <rdf:RDF>
      <cc:Work
         rdf:about="">
        <dc:format>image/svg+xml</dc:format>
        <dc:type
           rdf:resource="http://purl.org/dc/dcmitype/StillImage" />
        <dc:title></dc:title>
      </cc:Work>
    </rdf:RDF>
  </metadata>
  <g
     inkscape:label="Layer 1"
     inkscape:groupmode="layer"
     id="layer1"
     transform="translate(92.998533,-100.77776)">
    <g
       aria-label="Sites unseen"
       id="text2742"
       style="font-size:47.625px;line-height:125%;font-family:'Phage Regular';-inkscape-font-specification:'Phage Regular, ';letter-spacing:0px;word-spacing:0px;fill:#ffffff;stroke:#000000;stroke-width:0;stroke-linecap:butt;stroke-linejoin:miter;stroke-miterlimit:4;stroke-dasharray:none;stroke-opacity:1">
      <path
         d="m -92.866241,100.91005 v 19.76623 h 24.719421 v 4.95319 h -24.719421 v 7.41815 h 32.137573 V 113.25813 H -85.44809 v -4.92993 h 24.719422 v -7.41815 z"
         style="fill:#ffffff;stroke-width:0;stroke-miterlimit:4;stroke-dasharray:none"
         id="path2744" />
      <path
         d="m -57.473053,133.04762 h 7.418152 v -32.13757 h -7.418152 z"
         style="fill:#ffffff;stroke-width:0;stroke-miterlimit:4;stroke-dasharray:none"
         id="path2746" />
      <path
         d="m -46.799286,100.91005 v 7.41815 h 12.371338 v 24.71942 h 7.418152 V 108.3282 h 12.348083 v -7.41815 z"
         style="fill:#ffffff;stroke-width:0;stroke-miterlimit:4;stroke-dasharray:none"
         id="path2748" />
      <path
         d="m -11.406097,100.91005 v 32.13757 h 32.137573 v -7.41815 H -3.9879456 v -4.95319 H 20.731476 v -7.41815 H -3.9879456 V 108.3282 H 20.731476 v -7.41815 z"
         style="fill:#ffffff;stroke-width:0;stroke-miterlimit:4;stroke-dasharray:none"
         id="path2750" />
      <path
         d="m 23.987091,100.91005 v 19.76623 h 24.719421 v 4.95319 H 23.987091 v 7.41815 H 56.124664 V 113.25813 H 31.405243 v -4.92993 h 24.719421 v -7.41815 z"
         style="fill:#ffffff;stroke-width:0;stroke-miterlimit:4;stroke-dasharray:none"
         id="path2752" />
      <path
         d="m 95.912933,100.91005 v 24.71942 H 78.611664 v -24.71942 h -7.418152 v 32.13757 h 32.137578 v -32.13757 z"
         style="fill:#ffffff;stroke-width:0;stroke-miterlimit:4;stroke-dasharray:none"
         id="path2754" />
      <path
         d="m 131.30612,100.91005 v 20.6499 l -17.20825,-20.6499 h -7.51117 v 32.13757 h 7.41815 v -20.67315 l 17.20825,20.67315 h 7.51117 v -32.13757 z"
         style="fill:#ffffff;stroke-width:0;stroke-miterlimit:4;stroke-dasharray:none"
         id="path2756" />
      <path
         d="m 141.97989,100.91005 v 19.76623 h 24.71942 v 4.95319 h -24.71942 v 7.41815 h 32.13757 v -19.78949 h -24.71942 v -4.92993 h 24.71942 v -7.41815 z"
         style="fill:#ffffff;stroke-width:0;stroke-miterlimit:4;stroke-dasharray:none"
         id="path2758" />
      <path
         d="m 177.37308,100.91005 v 32.13757 h 32.13757 v -7.41815 h -24.71942 v -4.95319 h 24.71942 v -7.41815 h -24.71942 v -4.92993 h 24.71942 v -7.41815 z"
         style="fill:#ffffff;stroke-width:0;stroke-miterlimit:4;stroke-dasharray:none"
         id="path2760" />
      <path
         d="m 212.76627,100.91005 v 32.13757 h 32.13757 v -7.41815 h -24.71942 v -4.95319 h 24.71942 v -7.41815 h -24.71942 v -4.92993 h 24.71942 v -7.41815 z"
         style="fill:#ffffff;stroke-width:0;stroke-miterlimit:4;stroke-dasharray:none"
         id="path2762" />
      <path
         d="m 272.87888,100.91005 v 20.6499 l -17.20826,-20.6499 h -7.51117 v 32.13757 h 7.41816 v -20.67315 l 17.20825,20.67315 h 7.51117 v -32.13757 z"
         style="fill:#ffffff;stroke-width:0;stroke-miterlimit:4;stroke-dasharray:none"
         id="path2764" />
    </g>
  </g>
</svg>
